# xmcd
#
# Track frame offsets:
#	150
#	14057
#	28440
#	45772
#	63964
#	83935
#	103239
#	115767
#	130618
#	148955
#	169035
#	193153
#	206601
#
# Disc length: 3090
#
# Revision: 1
# Processed by: cddbd v1.5.1PL0 Copyright (c) Steve Scherf et al.
# Submitted via: EasyCDDAExtractor 4.6.9.1
# Normalized: r0:TDELIM( - )
#
DISCID=bb0c100d
DTITLE=Just Because I'm A Woman - Songs Of Dolly Parton
DYEAR=2003
DGENRE=Country
TTITLE0=Alison Krauss - 9 To 5
TTITLE1=Melissa Etheridge - I Will Always Love You
TTITLE2=Norah Jones - The Grass Is Blue
TTITLE3=Joan Osborne - Do I Ever Cross Your Mind
TTITLE4=Shelby Lynne - The Seeker
TTITLE5=Mindy Smith - Jolene
TTITLE6=Emmylou Harris - To Daddy
TTITLE7=Shania Twain - Alison Krauss - Coat Of Many Colors
TTITLE8=Kasey Chambers - Little Sparrow
TTITLE9=Sinead O'Connor - Dagger Through The Heart
TTITLE10=Allison Moorer - Light Of A Clear Blue Morning
TTITLE11=Me'Shell N'Degeocello - Two Doors Down
TTITLE12=Dolly Parton - Just Because I'm A Woman
EXTD=
EXTT0=
EXTT1=
EXTT2=
EXTT3=
EXTT4=
EXTT5=
EXTT6=
EXTT7=
EXTT8=
EXTT9=
EXTT10=
EXTT11=
EXTT12=
PLAYORDER=
